<svg xmlns="http://www.w3.org/2000/svg" xmlns:xlink="http://www.w3.org/1999/xlink" width="500" zoomAndPan="magnify" viewBox="0 0 375 374.999991" height="500" preserveAspectRatio="xMidYMid meet" version="1.0"><defs><clipPath id="d6e95682dc"><path d="M 19.8125 118 L 337.8125 118 L 337.8125 136 L 19.8125 136 Z M 19.8125 118 " clip-rule="nonzero"/></clipPath><clipPath id="a8ec2be3a5"><path d="M 19.8125 90 L 337.8125 90 L 337.8125 100 L 19.8125 100 Z M 19.8125 90 " clip-rule="nonzero"/></clipPath><clipPath id="cf00f1dec1"><path d="M 19.8125 286 L 136 286 L 136 334 L 19.8125 334 Z M 19.8125 286 " clip-rule="nonzero"/></clipPath><clipPath id="e431736fc8"><path d="M 222 286 L 337.8125 286 L 337.8125 334 L 222 334 Z M 222 286 " clip-rule="nonzero"/></clipPath><clipPath id="c6ca346ff8"><path d="M 19.8125 286 L 136 286 L 136 296 L 19.8125 296 Z M 19.8125 286 " clip-rule="nonzero"/></clipPath><clipPath id="dc5f177b2f"><path d="M 222 286 L 337.8125 286 L 337.8125 296 L 222 296 Z M 222 286 " clip-rule="nonzero"/></clipPath><clipPath id="76756396e4"><path d="M 106 29.632812 L 251 29.632812 L 251 91 L 106 91 Z M 106 29.632812 " clip-rule="nonzero"/></clipPath></defs><path fill="#e9e9e9" d="M 25.375 333.738281 L 332.15625 333.738281 L 332.15625 128.667969 L 25.375 128.667969 Z M 25.375 333.738281 " fill-opacity="1" fill-rule="nonzero"/><path fill="#e9e9e9" d="M 332.15625 128.667969 L 25.375 128.667969 L 25.375 90.195312 L 332.15625 90.195312 L 332.15625 128.667969 " fill-opacity="1" fill-rule="nonzero"/><g clip-path="url(#d6e95682dc)"><path fill="#cfcece" d="M 337.753906 118.117188 L 19.773438 118.117188 L 19.773438 136 L 337.753906 136 L 337.753906 118.117188 " fill-opacity="1" fill-rule="nonzero"/></g><g clip-path="url(#a8ec2be3a5)"><path fill="#cfcece" d="M 337.753906 90.195312 L 19.773438 90.195312 L 19.773438 99.136719 L 337.753906 99.136719 L 337.753906 90.195312 " fill-opacity="1" fill-rule="nonzero"/></g><path fill="#d3d2d2" d="M 54.109375 333.738281 L 303.425781 333.738281 L 303.425781 171.75 L 54.109375 171.75 Z M 54.109375 333.738281 " fill-opacity="1" fill-rule="nonzero"/><path fill="#65bed9" d="M 63.882812 333.738281 L 293.648438 333.738281 L 293.648438 171.75 L 63.882812 171.75 Z M 63.882812 333.738281 " fill-opacity="1" fill-rule="nonzero"/><path fill="#ffffff" d="M 222.429688 333.738281 L 135.097656 333.738281 L 135.097656 171.75 L 222.429688 171.75 L 222.429688 333.738281 " fill-opacity="1" fill-rule="nonzero"/><path fill="#65bed9" d="M 215.675781 333.738281 L 141.855469 333.738281 L 141.855469 180.679688 L 215.675781 180.679688 L 215.675781 333.738281 " fill-opacity="1" fill-rule="nonzero"/><path fill="#ffffff" d="M 219.074219 264.46875 L 137.335938 264.46875 L 137.335938 252.742188 L 219.074219 252.742188 L 219.074219 264.46875 " fill-opacity="1" fill-rule="nonzero"/><g clip-path="url(#cf00f1dec1)"><path fill="#433536" d="M 19.773438 333.738281 L 135.097656 333.738281 L 135.097656 286.820312 L 19.773438 286.820312 Z M 19.773438 333.738281 " fill-opacity="1" fill-rule="nonzero"/></g><g clip-path="url(#e431736fc8)"><path fill="#433536" d="M 222.429688 333.738281 L 337.753906 333.738281 L 337.753906 286.820312 L 222.429688 286.820312 Z M 222.429688 333.738281 " fill-opacity="1" fill-rule="nonzero"/></g><g clip-path="url(#c6ca346ff8)"><path fill="#544446" d="M 19.773438 295.753906 L 135.097656 295.753906 L 135.097656 286.820312 L 19.773438 286.820312 Z M 19.773438 295.753906 " fill-opacity="1" fill-rule="nonzero"/></g><g clip-path="url(#dc5f177b2f)"><path fill="#544446" d="M 222.429688 295.753906 L 337.753906 295.753906 L 337.753906 286.820312 L 222.429688 286.820312 Z M 222.429688 295.753906 " fill-opacity="1" fill-rule="nonzero"/></g><path fill="#8c1a29" d="M 277.648438 131.15625 L 71.765625 131.15625 L 71.765625 126.1875 L 277.648438 126.1875 L 277.648438 131.15625 " fill-opacity="1" fill-rule="nonzero"/><path fill="#c0253b" d="M 277.648438 131.15625 L 71.921875 131.15625 L 40.273438 182.332031 L 310.5625 182.332031 L 277.648438 131.15625 " fill-opacity="1" fill-rule="nonzero"/><path fill="#ffffff" d="M 94.832031 131.15625 L 70.144531 182.589844 L 280.683594 182.589844 L 255.007812 131.15625 L 94.832031 131.15625 " fill-opacity="1" fill-rule="nonzero"/><path fill="#c0253b" d="M 117.921875 131.15625 L 100.332031 182.332031 L 250.5 182.332031 L 232.214844 131.15625 L 117.921875 131.15625 " fill-opacity="1" fill-rule="nonzero"/><path fill="#ffffff" d="M 140.578125 131.15625 L 129.980469 182.332031 L 220.46875 182.332031 L 209.449219 131.15625 L 140.578125 131.15625 " fill-opacity="1" fill-rule="nonzero"/><path fill="#c0253b" d="M 163.925781 131.15625 L 160.40625 182.476562 L 190.457031 182.476562 L 186.792969 131.15625 L 163.925781 131.15625 " fill-opacity="1" fill-rule="nonzero"/><path fill="#8f1a2a" d="M 70.308594 182.332031 C 70.308594 189.773438 63.582031 195.800781 55.289062 195.800781 C 46.988281 195.800781 40.273438 189.773438 40.273438 182.332031 L 70.308594 182.332031 " fill-opacity="1" fill-rule="nonzero"/><path fill="#d3d2d2" d="M 100.332031 182.332031 C 100.332031 189.773438 93.613281 195.800781 85.320312 195.800781 C 77.027344 195.800781 70.308594 189.773438 70.308594 182.332031 L 100.332031 182.332031 " fill-opacity="1" fill-rule="nonzero"/><path fill="#8f1a2a" d="M 130.371094 182.332031 C 130.371094 189.773438 123.648438 195.800781 115.351562 195.800781 C 107.058594 195.800781 100.332031 189.773438 100.332031 182.332031 L 130.371094 182.332031 " fill-opacity="1" fill-rule="nonzero"/><path fill="#d3d2d2" d="M 160.40625 182.332031 C 160.40625 189.773438 153.679688 195.800781 145.386719 195.800781 C 137.09375 195.800781 130.371094 189.773438 130.371094 182.332031 L 160.40625 182.332031 " fill-opacity="1" fill-rule="nonzero"/><path fill="#8f1a2a" d="M 190.433594 182.332031 C 190.433594 189.773438 183.710938 195.800781 175.417969 195.800781 C 167.125 195.800781 160.40625 189.773438 160.40625 182.332031 L 190.433594 182.332031 " fill-opacity="1" fill-rule="nonzero"/><path fill="#d3d2d2" d="M 220.46875 182.332031 C 220.46875 189.773438 213.746094 195.800781 205.453125 195.800781 C 197.160156 195.800781 190.433594 189.773438 190.433594 182.332031 L 220.46875 182.332031 " fill-opacity="1" fill-rule="nonzero"/><path fill="#8f1a2a" d="M 250.5 182.332031 C 250.5 189.773438 243.777344 195.800781 235.480469 195.800781 C 227.191406 195.800781 220.46875 189.773438 220.46875 182.332031 L 250.5 182.332031 " fill-opacity="1" fill-rule="nonzero"/><path fill="#d3d2d2" d="M 280.535156 182.332031 C 280.535156 189.773438 273.808594 195.800781 265.519531 195.800781 C 257.21875 195.800781 250.5 189.773438 250.5 182.332031 L 280.535156 182.332031 " fill-opacity="1" fill-rule="nonzero"/><path fill="#8f1a2a" d="M 310.5625 182.332031 C 310.5625 189.773438 303.835938 195.800781 295.550781 195.800781 C 287.257812 195.800781 280.535156 189.773438 280.535156 182.332031 L 310.5625 182.332031 " fill-opacity="1" fill-rule="nonzero"/><path fill="#f14624" d="M 320.796875 301.125 L 280.09375 301.125 L 288.320312 336.996094 L 314.867188 336.996094 L 320.796875 301.125 " fill-opacity="1" fill-rule="nonzero"/><path fill="#b33219" d="M 299.894531 336.996094 L 288.320312 336.996094 L 280.09375 301.125 L 299.894531 301.125 L 299.894531 336.996094 " fill-opacity="1" fill-rule="nonzero"/><path fill="#5a3114" d="M 297.726562 301.125 L 303.886719 301.125 L 303.886719 269.5 L 297.726562 269.5 Z M 297.726562 301.125 " fill-opacity="1" fill-rule="nonzero"/><path fill="#80cc28" d="M 329.246094 263.355469 C 329.15625 261.855469 328.351562 260.589844 327.164062 259.847656 C 327.972656 258.710938 328.238281 257.214844 327.746094 255.777344 C 327.253906 254.378906 326.113281 253.34375 324.769531 252.96875 C 325.238281 251.648438 325.101562 250.132812 324.230469 248.898438 C 323.359375 247.640625 321.960938 246.972656 320.539062 246.984375 C 320.554688 246.851562 320.582031 246.730469 320.582031 246.597656 C 320.582031 245.972656 320.4375 245.359375 320.179688 244.792969 C 321.609375 244.324219 322.777344 243.148438 323.15625 241.59375 C 323.535156 240.027344 323.042969 238.472656 321.988281 237.386719 C 323.15625 236.457031 323.804688 234.960938 323.601562 233.371094 C 323.402344 231.757812 322.394531 230.488281 321.027344 229.863281 C 321.789062 228.570312 321.878906 226.914062 321.140625 225.5 C 320.378906 224.078125 318.96875 223.21875 317.46875 223.136719 C 317.714844 221.660156 317.21875 220.097656 316.035156 219.027344 C 314.824219 217.976562 313.207031 217.660156 311.777344 218.109375 C 311.492188 216.636719 310.460938 215.339844 308.957031 214.777344 C 307.457031 214.199219 305.84375 214.488281 304.660156 215.398438 C 303.851562 214.132812 302.441406 213.285156 300.851562 213.285156 C 299.242188 213.285156 297.832031 214.132812 297.046875 215.378906 C 295.859375 214.488281 294.21875 214.179688 292.722656 214.757812 C 291.222656 215.3125 290.191406 216.589844 289.902344 218.066406 C 288.472656 217.640625 286.855469 217.933594 285.648438 218.976562 C 284.4375 220.050781 283.945312 221.621094 284.191406 223.074219 C 282.695312 223.175781 281.28125 224.03125 280.519531 225.433594 C 279.753906 226.847656 279.847656 228.496094 280.613281 229.792969 C 279.238281 230.398438 278.214844 231.695312 278.011719 233.28125 C 277.8125 234.890625 278.457031 236.390625 279.621094 237.324219 C 278.570312 238.375 278.078125 239.933594 278.441406 241.496094 C 278.820312 243.101562 280.007812 244.277344 281.46875 244.730469 C 281.195312 245.3125 281.03125 245.957031 281.03125 246.597656 C 281.03125 246.710938 281.058594 246.820312 281.066406 246.933594 C 279.667969 246.953125 278.289062 247.609375 277.429688 248.839844 C 276.554688 250.058594 276.398438 251.578125 276.871094 252.902344 C 275.527344 253.285156 274.402344 254.285156 273.890625 255.714844 C 273.402344 257.117188 273.667969 258.617188 274.46875 259.757812 C 273.289062 260.492188 272.457031 261.773438 272.367188 263.289062 C 272.277344 264.765625 272.929688 266.148438 274.003906 267.023438 C 273.058594 268.042969 272.613281 269.5 272.929688 270.976562 C 273.242188 272.429688 274.230469 273.589844 275.503906 274.152344 C 274.875 275.382812 274.832031 276.894531 275.546875 278.238281 C 276.242188 279.578125 277.496094 280.40625 278.882812 280.609375 C 278.613281 281.964844 278.996094 283.449219 280.007812 284.511719 C 281.03125 285.609375 282.488281 286.085938 283.878906 285.90625 C 283.96875 287.292969 284.726562 288.605469 286.003906 289.386719 C 287.308594 290.167969 288.828125 290.234375 290.105469 289.679688 C 290.578125 290.996094 291.648438 292.066406 293.105469 292.46875 C 294.558594 292.878906 296.035156 292.519531 297.136719 291.640625 C 297.9375 292.78125 299.261719 293.527344 300.761719 293.527344 L 300.785156 293.527344 C 302.285156 293.527344 303.609375 292.78125 304.414062 291.667969 C 305.488281 292.535156 306.988281 292.898438 308.421875 292.488281 C 309.875 292.09375 310.976562 291.019531 311.441406 289.699219 C 312.722656 290.253906 314.246094 290.214844 315.539062 289.433594 C 316.820312 288.644531 317.578125 287.332031 317.6875 285.945312 C 319.058594 286.125 320.511719 285.679688 321.546875 284.585938 C 322.574219 283.488281 322.957031 282.011719 322.6875 280.648438 C 324.074219 280.472656 325.351562 279.644531 326.042969 278.304688 C 326.738281 276.988281 326.695312 275.46875 326.070312 274.210938 C 327.367188 273.65625 328.351562 272.515625 328.667969 271.046875 L 328.683594 271.046875 C 329 269.59375 328.554688 268.136719 327.613281 267.089844 C 328.683594 266.21875 329.339844 264.851562 329.246094 263.355469 " fill-opacity="1" fill-rule="nonzero"/><path fill="#a4d71d" d="M 306.996094 288.914062 C 306.597656 288.914062 306.195312 288.863281 305.792969 288.75 C 305.683594 288.71875 305.582031 288.683594 305.476562 288.648438 C 305.617188 288.414062 305.738281 288.167969 305.832031 287.90625 C 306.367188 288.140625 306.949219 288.265625 307.539062 288.265625 C 308.28125 288.265625 309.039062 288.070312 309.726562 287.652344 C 310.941406 286.90625 311.660156 285.660156 311.773438 284.34375 C 311.953125 284.363281 312.140625 284.378906 312.324219 284.378906 C 313.453125 284.378906 314.589844 283.9375 315.429688 283.046875 C 316.40625 282.007812 316.773438 280.609375 316.515625 279.304688 C 317.835938 279.136719 319.042969 278.355469 319.707031 277.078125 C 320.367188 275.820312 320.328125 274.382812 319.730469 273.1875 C 320.960938 272.660156 321.898438 271.578125 322.195312 270.171875 L 322.222656 270.171875 C 322.515625 268.792969 322.09375 267.417969 321.199219 266.417969 C 322.222656 265.589844 322.839844 264.296875 322.75 262.871094 C 322.664062 261.445312 321.898438 260.242188 320.773438 259.539062 C 321.539062 258.453125 321.792969 257.027344 321.324219 255.675781 C 320.855469 254.335938 319.773438 253.359375 318.496094 252.988281 C 318.941406 251.742188 318.816406 250.296875 317.988281 249.132812 C 317.160156 247.945312 315.847656 247.308594 314.5 247.308594 C 314.492188 247.308594 314.488281 247.308594 314.480469 247.308594 C 314.492188 247.1875 314.511719 247.066406 314.511719 246.941406 C 314.511719 246.359375 314.378906 245.769531 314.136719 245.226562 C 315.496094 244.785156 316.601562 243.667969 316.964844 242.191406 C 317.324219 240.703125 316.859375 239.214844 315.855469 238.191406 C 316.964844 237.304688 317.578125 235.875 317.386719 234.367188 C 317.195312 232.84375 316.242188 231.628906 314.9375 231.039062 C 315.664062 229.804688 315.753906 228.238281 315.046875 226.894531 C 314.324219 225.539062 312.984375 224.726562 311.554688 224.644531 C 311.785156 223.242188 311.324219 221.757812 310.195312 220.742188 C 309.386719 220.042969 308.386719 219.683594 307.390625 219.683594 C 306.972656 219.683594 306.554688 219.75 306.148438 219.875 C 305.933594 218.753906 305.257812 217.769531 304.277344 217.132812 C 304.964844 216.679688 305.773438 216.425781 306.609375 216.425781 C 307.09375 216.425781 307.59375 216.515625 308.082031 216.703125 C 309.507812 217.234375 310.484375 218.460938 310.757812 219.875 C 311.164062 219.75 311.582031 219.683594 312 219.683594 C 312.996094 219.683594 314 220.042969 314.808594 220.742188 C 315.933594 221.757812 316.402344 223.242188 316.167969 224.644531 C 317.59375 224.726562 318.933594 225.539062 319.65625 226.894531 C 320.359375 228.238281 320.273438 229.804688 319.550781 231.039062 C 320.851562 231.628906 321.8125 232.84375 322 234.367188 C 322.1875 235.875 321.574219 237.304688 320.46875 238.191406 C 321.472656 239.214844 321.9375 240.703125 321.574219 242.191406 C 321.214844 243.667969 320.105469 244.785156 318.746094 245.226562 C 318.988281 245.769531 319.125 246.359375 319.125 246.941406 C 319.125 247.066406 319.101562 247.1875 319.089844 247.308594 C 319.097656 247.308594 319.105469 247.308594 319.109375 247.308594 C 320.457031 247.308594 321.773438 247.945312 322.597656 249.132812 C 323.425781 250.296875 323.550781 251.742188 323.105469 252.988281 C 324.382812 253.359375 325.46875 254.335938 325.9375 255.675781 C 326.40625 257.027344 326.148438 258.453125 325.382812 259.539062 C 326.511719 260.242188 327.273438 261.445312 327.363281 262.871094 C 327.449219 264.296875 326.832031 265.589844 325.808594 266.417969 C 326.703125 267.417969 327.128906 268.792969 326.832031 270.171875 L 326.808594 270.171875 C 326.511719 271.578125 325.570312 272.660156 324.339844 273.1875 C 324.941406 274.382812 324.980469 275.820312 324.320312 277.078125 C 323.65625 278.355469 322.445312 279.136719 321.128906 279.304688 C 321.382812 280.609375 321.015625 282.007812 320.042969 283.046875 C 319.199219 283.9375 318.0625 284.378906 316.933594 284.378906 C 316.75 284.378906 316.5625 284.363281 316.382812 284.34375 C 316.273438 285.660156 315.550781 286.90625 314.335938 287.652344 C 313.648438 288.070312 312.894531 288.265625 312.148438 288.265625 C 311.5625 288.265625 310.976562 288.140625 310.441406 287.90625 C 310.378906 288.082031 310.308594 288.246094 310.222656 288.410156 C 310.078125 288.257812 309.945312 288.089844 309.820312 287.921875 C 309.03125 288.546875 308.035156 288.914062 306.996094 288.914062 " fill-opacity="1" fill-rule="nonzero"/><path fill="#403333" d="M 307.222656 292.65625 C 306.1875 292.65625 305.191406 292.292969 304.414062 291.667969 C 304.253906 291.882812 304.082031 292.089844 303.886719 292.273438 C 304.082031 292.089844 304.253906 291.882812 304.414062 291.667969 C 305.191406 292.292969 306.1875 292.65625 307.222656 292.65625 C 307.621094 292.65625 308.023438 292.601562 308.421875 292.488281 C 309.875 292.09375 310.976562 291.019531 311.441406 289.699219 C 312.007812 289.945312 312.621094 290.074219 313.242188 290.074219 C 314.023438 290.074219 314.820312 289.871094 315.539062 289.433594 C 315.578125 289.410156 315.617188 289.386719 315.652344 289.363281 C 315.617188 289.386719 315.578125 289.410156 315.539062 289.433594 C 314.820312 289.871094 314.023438 290.074219 313.242188 290.074219 C 312.621094 290.074219 312.007812 289.945312 311.441406 289.699219 C 310.976562 291.019531 309.875 292.09375 308.421875 292.488281 C 308.023438 292.601562 307.621094 292.65625 307.222656 292.65625 " fill-opacity="1" fill-rule="nonzero"/><path fill="#5d961c" d="M 300.785156 293.527344 L 300.761719 293.527344 C 299.261719 293.527344 297.9375 292.78125 297.136719 291.640625 C 296.34375 292.273438 295.351562 292.636719 294.316406 292.636719 C 293.917969 292.636719 293.511719 292.585938 293.105469 292.46875 C 291.648438 292.066406 290.578125 290.996094 290.105469 289.679688 C 289.550781 289.917969 288.957031 290.042969 288.351562 290.042969 C 287.550781 290.042969 286.742188 289.832031 286.003906 289.386719 C 284.726562 288.605469 283.96875 287.292969 283.878906 285.90625 C 283.679688 285.929688 283.484375 285.941406 283.289062 285.941406 C 282.089844 285.941406 280.890625 285.460938 280.007812 284.511719 C 279.203125 283.667969 278.796875 282.5625 278.800781 281.464844 C 278.800781 281.175781 278.828125 280.890625 278.882812 280.609375 C 277.496094 280.40625 276.242188 279.578125 275.546875 278.238281 C 275.1875 277.566406 275.023438 276.855469 275.023438 276.152344 C 275.023438 275.453125 275.1875 274.769531 275.503906 274.152344 C 274.230469 273.589844 273.242188 272.429688 272.929688 270.976562 C 272.859375 270.65625 272.828125 270.339844 272.828125 270.03125 C 272.828125 268.894531 273.261719 267.824219 274.003906 267.023438 C 272.996094 266.203125 272.363281 264.933594 272.359375 263.566406 C 272.359375 263.476562 272.363281 263.382812 272.367188 263.289062 C 272.457031 261.773438 273.289062 260.492188 274.46875 259.757812 C 273.941406 259.007812 273.644531 258.097656 273.644531 257.160156 C 273.644531 256.679688 273.722656 256.191406 273.890625 255.714844 C 274.402344 254.285156 275.527344 253.285156 276.871094 252.902344 C 276.695312 252.421875 276.609375 251.917969 276.609375 251.402344 C 276.609375 250.511719 276.875 249.613281 277.429688 248.839844 C 278.289062 247.609375 279.667969 246.953125 281.066406 246.933594 C 281.058594 246.820312 281.03125 246.710938 281.03125 246.597656 C 281.03125 245.957031 281.195312 245.3125 281.46875 244.730469 C 280.007812 244.277344 278.820312 243.101562 278.441406 241.496094 C 278.363281 241.15625 278.320312 240.816406 278.320312 240.480469 C 278.320312 239.277344 278.800781 238.148438 279.621094 237.324219 C 278.601562 236.507812 277.972656 235.246094 277.972656 233.859375 C 277.972656 233.667969 277.984375 233.476562 278.011719 233.28125 C 278.214844 231.695312 279.238281 230.398438 280.613281 229.792969 C 280.207031 229.105469 279.992188 228.316406 279.992188 227.515625 C 279.992188 226.808594 280.160156 226.09375 280.519531 225.433594 C 281.28125 224.03125 282.695312 223.175781 284.191406 223.074219 C 284.148438 222.828125 284.128906 222.582031 284.132812 222.335938 C 284.132812 221.109375 284.640625 219.871094 285.648438 218.976562 C 286.5 218.242188 287.550781 217.878906 288.601562 217.878906 C 289.039062 217.878906 289.480469 217.941406 289.902344 218.066406 C 290.191406 216.589844 291.222656 215.3125 292.722656 214.757812 C 293.242188 214.554688 293.777344 214.460938 294.300781 214.460938 C 295.296875 214.460938 296.269531 214.796875 297.046875 215.378906 C 297.832031 214.132812 299.242188 213.285156 300.851562 213.285156 C 300.859375 213.285156 300.863281 213.285156 300.867188 213.285156 C 301.558594 213.285156 302.199219 213.46875 302.785156 213.753906 C 302.714844 213.945312 302.632812 214.136719 302.59375 214.339844 C 302.164062 214.21875 301.726562 214.152344 301.285156 214.152344 C 300.234375 214.152344 299.1875 214.511719 298.335938 215.25 C 297.125 216.332031 296.636719 217.894531 296.882812 219.34375 C 295.382812 219.453125 293.972656 220.308594 293.207031 221.714844 C 292.445312 223.121094 292.539062 224.777344 293.300781 226.074219 C 291.929688 226.675781 290.902344 227.972656 290.699219 229.554688 C 290.5 231.164062 291.144531 232.660156 292.3125 233.601562 C 291.257812 234.65625 290.769531 236.214844 291.128906 237.773438 C 291.511719 239.375 292.703125 240.550781 294.15625 241.003906 C 293.878906 241.59375 293.722656 242.230469 293.722656 242.875 C 293.722656 242.988281 293.746094 243.09375 293.757812 243.21875 C 292.359375 243.222656 290.976562 243.882812 290.117188 245.109375 C 289.242188 246.335938 289.089844 247.859375 289.558594 249.175781 C 288.21875 249.558594 287.089844 250.5625 286.578125 251.992188 C 286.089844 253.398438 286.355469 254.894531 287.160156 256.035156 C 285.972656 256.761719 285.144531 258.050781 285.058594 259.5625 C 284.964844 261.035156 285.617188 262.421875 286.691406 263.289062 C 285.75 264.324219 285.304688 265.78125 285.617188 267.253906 C 285.929688 268.707031 286.917969 269.863281 288.191406 270.417969 C 287.566406 271.652344 287.519531 273.175781 288.234375 274.511719 C 288.929688 275.859375 290.1875 276.683594 291.570312 276.878906 C 291.304688 278.238281 291.683594 279.710938 292.699219 280.789062 C 293.582031 281.734375 294.789062 282.210938 295.992188 282.210938 C 296.183594 282.210938 296.375 282.203125 296.570312 282.179688 C 296.652344 283.5625 297.414062 284.886719 298.695312 285.660156 C 299.429688 286.105469 300.238281 286.320312 301.035156 286.320312 C 301.644531 286.320312 302.238281 286.195312 302.792969 285.953125 C 303.226562 287.171875 304.179688 288.1875 305.476562 288.648438 C 305.144531 289.191406 304.683594 289.65625 304.136719 290.011719 C 304.816406 290.453125 305.628906 290.710938 306.46875 290.710938 C 306.832031 290.710938 307.203125 290.664062 307.566406 290.5625 C 308.761719 290.234375 309.703125 289.429688 310.222656 288.410156 C 311.035156 289.265625 312.183594 289.792969 313.453125 289.792969 L 313.472656 289.792969 C 314.722656 289.792969 315.828125 289.261719 316.632812 288.449219 C 316.351562 288.785156 316.039062 289.109375 315.652344 289.363281 C 315.617188 289.386719 315.578125 289.410156 315.539062 289.433594 C 314.820312 289.871094 314.023438 290.074219 313.242188 290.074219 C 312.621094 290.074219 312.007812 289.945312 311.441406 289.699219 C 310.976562 291.019531 309.875 292.09375 308.421875 292.488281 C 308.023438 292.601562 307.621094 292.65625 307.222656 292.65625 C 306.1875 292.65625 305.191406 292.292969 304.414062 291.667969 C 304.253906 291.882812 304.082031 292.089844 303.886719 292.273438 C 303.085938 293.042969 301.996094 293.527344 300.785156 293.527344 " fill-opacity="1" fill-rule="nonzero"/><path fill="#789e14" d="M 306.46875 290.710938 C 305.628906 290.710938 304.816406 290.453125 304.136719 290.011719 C 304.683594 289.65625 305.144531 289.191406 305.476562 288.648438 C 305.582031 288.683594 305.683594 288.71875 305.792969 288.75 C 306.195312 288.863281 306.597656 288.914062 306.996094 288.914062 C 308.035156 288.914062 309.03125 288.546875 309.820312 287.921875 C 309.945312 288.089844 310.078125 288.257812 310.222656 288.410156 C 309.703125 289.429688 308.761719 290.234375 307.566406 290.5625 C 307.203125 290.664062 306.832031 290.710938 306.46875 290.710938 " fill-opacity="1" fill-rule="nonzero"/><path fill="#f14624" d="M 80.441406 301.125 L 39.742188 301.125 L 47.964844 336.996094 L 74.515625 336.996094 L 80.441406 301.125 " fill-opacity="1" fill-rule="nonzero"/><path fill="#b33219" d="M 59.539062 336.996094 L 47.964844 336.996094 L 39.742188 301.125 L 59.539062 301.125 L 59.539062 336.996094 " fill-opacity="1" fill-rule="nonzero"/><path fill="#5a3114" d="M 57.375 301.125 L 63.539062 301.125 L 63.539062 269.5 L 57.375 269.5 Z M 57.375 301.125 " fill-opacity="1" fill-rule="nonzero"/><path fill="#80cc28" d="M 88.894531 263.355469 C 88.804688 261.855469 87.996094 260.589844 86.8125 259.847656 C 87.621094 258.710938 87.886719 257.214844 87.394531 255.777344 C 86.898438 254.378906 85.757812 253.34375 84.414062 252.96875 C 84.886719 251.648438 84.753906 250.132812 83.878906 248.898438 C 83.007812 247.640625 81.605469 246.972656 80.191406 246.984375 C 80.199219 246.851562 80.230469 246.730469 80.230469 246.597656 C 80.230469 245.972656 80.082031 245.359375 79.832031 244.792969 C 81.257812 244.324219 82.425781 243.148438 82.804688 241.59375 C 83.183594 240.027344 82.6875 238.472656 81.640625 237.386719 C 82.804688 236.457031 83.453125 234.960938 83.25 233.371094 C 83.050781 231.757812 82.042969 230.488281 80.675781 229.863281 C 81.4375 228.570312 81.53125 226.914062 80.785156 225.5 C 80.03125 224.078125 78.613281 223.21875 77.117188 223.136719 C 77.359375 221.660156 76.867188 220.097656 75.683594 219.027344 C 74.46875 217.976562 72.859375 217.660156 71.429688 218.109375 C 71.140625 216.636719 70.105469 215.339844 68.605469 214.777344 C 67.105469 214.199219 65.492188 214.488281 64.304688 215.398438 C 63.5 214.132812 62.089844 213.285156 60.5 213.285156 C 58.886719 213.285156 57.476562 214.132812 56.691406 215.378906 C 55.503906 214.488281 53.871094 214.179688 52.371094 214.757812 C 50.867188 215.3125 49.84375 216.589844 49.550781 218.066406 C 48.117188 217.640625 46.503906 217.933594 45.292969 218.976562 C 44.085938 220.050781 43.59375 221.621094 43.835938 223.074219 C 42.339844 223.175781 40.929688 224.03125 40.167969 225.433594 C 39.402344 226.847656 39.5 228.496094 40.257812 229.792969 C 38.890625 230.398438 37.859375 231.695312 37.65625 233.28125 C 37.457031 234.890625 38.105469 236.390625 39.273438 237.324219 C 38.222656 238.375 37.726562 239.933594 38.085938 241.496094 C 38.472656 243.101562 39.65625 244.277344 41.113281 244.730469 C 40.839844 245.3125 40.679688 245.957031 40.679688 246.597656 C 40.679688 246.710938 40.707031 246.820312 40.714844 246.933594 C 39.3125 246.953125 37.933594 247.609375 37.078125 248.839844 C 36.203125 250.058594 36.046875 251.578125 36.515625 252.902344 C 35.171875 253.285156 34.050781 254.285156 33.539062 255.714844 C 33.042969 257.117188 33.3125 258.617188 34.125 259.757812 C 32.933594 260.492188 32.105469 261.773438 32.015625 263.289062 C 31.925781 264.765625 32.574219 266.148438 33.652344 267.023438 C 32.710938 268.042969 32.261719 269.5 32.574219 270.976562 C 32.890625 272.429688 33.875 273.589844 35.148438 274.152344 C 34.523438 275.382812 34.480469 276.894531 35.195312 278.238281 C 35.890625 279.578125 37.140625 280.40625 38.53125 280.609375 C 38.265625 281.964844 38.640625 283.449219 39.648438 284.511719 C 40.679688 285.609375 42.136719 286.085938 43.527344 285.90625 C 43.613281 287.292969 44.375 288.605469 45.652344 289.386719 C 46.953125 290.167969 48.472656 290.234375 49.75 289.679688 C 50.222656 290.996094 51.296875 292.066406 52.75 292.46875 C 54.207031 292.878906 55.683594 292.519531 56.78125 291.640625 C 57.589844 292.78125 58.910156 293.527344 60.410156 293.527344 L 60.433594 293.527344 C 61.929688 293.527344 63.253906 292.78125 64.058594 291.667969 C 65.132812 292.535156 66.636719 292.898438 68.066406 292.488281 C 69.523438 292.09375 70.617188 291.019531 71.089844 289.699219 C 72.367188 290.253906 73.890625 290.214844 75.1875 289.433594 C 76.464844 288.644531 77.226562 287.332031 77.339844 285.945312 C 78.703125 286.125 80.160156 285.679688 81.191406 284.585938 C 82.222656 283.488281 82.601562 282.011719 82.332031 280.648438 C 83.722656 280.472656 84.996094 279.644531 85.691406 278.304688 C 86.382812 276.988281 86.34375 275.46875 85.710938 274.210938 C 87.011719 273.65625 87.996094 272.515625 88.3125 271.046875 L 88.335938 271.046875 C 88.648438 269.59375 88.195312 268.136719 87.257812 267.089844 C 88.335938 266.21875 88.984375 264.851562 88.894531 263.355469 " fill-opacity="1" fill-rule="nonzero"/><path fill="#a4d71d" d="M 66.640625 288.914062 C 66.246094 288.914062 65.84375 288.863281 65.441406 288.75 C 65.332031 288.71875 65.230469 288.683594 65.121094 288.648438 C 65.265625 288.414062 65.386719 288.164062 65.476562 287.90625 C 66.015625 288.140625 66.597656 288.265625 67.1875 288.265625 C 67.929688 288.265625 68.683594 288.070312 69.375 287.652344 C 70.589844 286.90625 71.3125 285.660156 71.414062 284.34375 C 71.601562 284.363281 71.785156 284.378906 71.972656 284.378906 C 73.101562 284.378906 74.238281 283.9375 75.078125 283.046875 C 76.054688 282.007812 76.417969 280.609375 76.164062 279.304688 C 77.480469 279.136719 78.695312 278.355469 79.359375 277.078125 C 80.019531 275.820312 79.96875 274.382812 79.375 273.1875 C 80.609375 272.660156 81.546875 271.578125 81.847656 270.171875 L 81.867188 270.171875 C 82.164062 268.792969 81.734375 267.417969 80.847656 266.417969 C 81.867188 265.589844 82.480469 264.296875 82.398438 262.871094 C 82.316406 261.445312 81.546875 260.242188 80.421875 259.539062 C 81.183594 258.453125 81.445312 257.027344 80.972656 255.675781 C 80.507812 254.335938 79.417969 253.359375 78.140625 252.988281 C 78.589844 251.742188 78.460938 250.296875 77.632812 249.132812 C 76.804688 247.945312 75.488281 247.308594 74.148438 247.308594 C 74.140625 247.308594 74.132812 247.308594 74.128906 247.308594 C 74.136719 247.1875 74.164062 247.066406 74.164062 246.941406 C 74.164062 246.359375 74.027344 245.769531 73.78125 245.226562 C 75.144531 244.785156 76.25 243.667969 76.609375 242.191406 C 76.972656 240.703125 76.503906 239.214844 75.503906 238.191406 C 76.609375 237.304688 77.226562 235.875 77.039062 234.367188 C 76.847656 232.84375 75.886719 231.628906 74.589844 231.039062 C 75.308594 229.804688 75.394531 228.238281 74.695312 226.894531 C 73.96875 225.539062 72.628906 224.726562 71.203125 224.644531 C 71.4375 223.242188 70.96875 221.757812 69.84375 220.742188 C 69.035156 220.042969 68.03125 219.683594 67.039062 219.683594 C 66.621094 219.683594 66.203125 219.75 65.800781 219.875 C 65.578125 218.753906 64.898438 217.769531 63.925781 217.132812 C 64.617188 216.679688 65.421875 216.425781 66.257812 216.425781 C 66.742188 216.425781 67.242188 216.515625 67.726562 216.703125 C 69.152344 217.234375 70.132812 218.460938 70.410156 219.875 C 70.8125 219.75 71.230469 219.683594 71.648438 219.683594 C 72.644531 219.683594 73.644531 220.042969 74.453125 220.742188 C 75.582031 221.757812 76.046875 223.242188 75.820312 224.644531 C 77.242188 224.726562 78.582031 225.539062 79.304688 226.894531 C 80.007812 228.238281 79.921875 229.804688 79.199219 231.039062 C 80.5 231.628906 81.453125 232.84375 81.644531 234.367188 C 81.835938 235.875 81.222656 237.304688 80.113281 238.191406 C 81.113281 239.214844 81.582031 240.703125 81.222656 242.191406 C 80.859375 243.667969 79.753906 244.785156 78.390625 245.226562 C 78.636719 245.769531 78.773438 246.359375 78.773438 246.941406 C 78.773438 247.066406 78.746094 247.1875 78.738281 247.308594 C 78.746094 247.308594 78.75 247.308594 78.757812 247.308594 C 80.105469 247.308594 81.417969 247.945312 82.242188 249.132812 C 83.074219 250.296875 83.199219 251.742188 82.75 252.988281 C 84.027344 253.359375 85.117188 254.335938 85.585938 255.675781 C 86.050781 257.027344 85.796875 258.453125 85.03125 259.539062 C 86.15625 260.242188 86.921875 261.445312 87.007812 262.871094 C 87.09375 264.296875 86.476562 265.589844 85.457031 266.417969 C 86.347656 267.417969 86.773438 268.792969 86.476562 270.171875 L 86.457031 270.171875 C 86.15625 271.578125 85.222656 272.660156 83.984375 273.1875 C 84.585938 274.382812 84.625 275.820312 83.96875 277.078125 C 83.304688 278.355469 82.089844 279.136719 80.777344 279.304688 C 81.027344 280.609375 80.664062 282.007812 79.6875 283.046875 C 78.847656 283.9375 77.710938 284.378906 76.582031 284.378906 C 76.398438 284.378906 76.214844 284.363281 76.03125 284.34375 C 75.921875 285.660156 75.195312 286.90625 73.984375 287.652344 C 73.296875 288.070312 72.539062 288.265625 71.796875 288.265625 C 71.207031 288.265625 70.621094 288.140625 70.085938 287.90625 C 70.027344 288.082031 69.953125 288.246094 69.871094 288.410156 C 69.726562 288.257812 69.59375 288.089844 69.472656 287.921875 C 68.675781 288.546875 67.683594 288.914062 66.640625 288.914062 " fill-opacity="1" fill-rule="nonzero"/><path fill="#403333" d="M 66.867188 292.65625 C 65.835938 292.65625 64.832031 292.292969 64.058594 291.667969 C 63.902344 291.882812 63.730469 292.085938 63.535156 292.269531 C 63.730469 292.085938 63.902344 291.882812 64.058594 291.667969 C 64.832031 292.292969 65.835938 292.65625 66.867188 292.65625 C 67.265625 292.65625 67.667969 292.601562 68.066406 292.488281 C 69.523438 292.09375 70.617188 291.019531 71.089844 289.699219 C 71.65625 289.945312 72.269531 290.074219 72.890625 290.074219 C 73.671875 290.074219 74.46875 289.871094 75.1875 289.433594 C 75.222656 289.410156 75.265625 289.386719 75.300781 289.363281 C 75.265625 289.386719 75.226562 289.410156 75.1875 289.433594 C 74.46875 289.871094 73.671875 290.074219 72.890625 290.074219 C 72.269531 290.074219 71.65625 289.945312 71.089844 289.699219 C 70.617188 291.019531 69.523438 292.09375 68.066406 292.488281 C 67.667969 292.601562 67.265625 292.65625 66.867188 292.65625 " fill-opacity="1" fill-rule="nonzero"/><path fill="#5d961c" d="M 60.433594 293.527344 L 60.410156 293.527344 C 58.910156 293.527344 57.589844 292.78125 56.78125 291.640625 C 55.992188 292.273438 54.996094 292.636719 53.960938 292.636719 C 53.5625 292.636719 53.15625 292.585938 52.75 292.46875 C 51.296875 292.066406 50.222656 290.996094 49.75 289.679688 C 49.199219 289.917969 48.601562 290.042969 47.996094 290.042969 C 47.199219 290.042969 46.390625 289.832031 45.652344 289.386719 C 44.375 288.605469 43.613281 287.292969 43.527344 285.90625 C 43.332031 285.929688 43.136719 285.941406 42.941406 285.941406 C 41.738281 285.941406 40.535156 285.460938 39.648438 284.511719 C 38.851562 283.667969 38.445312 282.5625 38.445312 281.464844 C 38.449219 281.175781 38.476562 280.890625 38.53125 280.609375 C 37.140625 280.40625 35.890625 279.578125 35.195312 278.238281 C 34.835938 277.566406 34.667969 276.855469 34.667969 276.152344 C 34.667969 275.453125 34.835938 274.769531 35.148438 274.152344 C 33.875 273.589844 32.890625 272.429688 32.574219 270.976562 C 32.507812 270.664062 32.476562 270.351562 32.476562 270.046875 C 32.472656 268.902344 32.910156 267.828125 33.652344 267.023438 C 32.640625 266.203125 32.007812 264.933594 32.007812 263.566406 C 32.007812 263.476562 32.011719 263.382812 32.015625 263.289062 C 32.105469 261.773438 32.933594 260.492188 34.125 259.757812 C 33.589844 259.007812 33.289062 258.097656 33.289062 257.160156 C 33.289062 256.679688 33.371094 256.191406 33.539062 255.714844 C 34.050781 254.285156 35.171875 253.285156 36.515625 252.902344 C 36.34375 252.421875 36.253906 251.917969 36.253906 251.402344 C 36.253906 250.511719 36.523438 249.613281 37.078125 248.839844 C 37.933594 247.609375 39.3125 246.953125 40.714844 246.933594 C 40.707031 246.820312 40.679688 246.710938 40.679688 246.597656 C 40.679688 245.957031 40.839844 245.3125 41.113281 244.730469 C 39.65625 244.277344 38.472656 243.101562 38.085938 241.496094 C 38.007812 241.15625 37.964844 240.816406 37.964844 240.480469 C 37.964844 239.277344 38.449219 238.148438 39.273438 237.324219 C 38.25 236.507812 37.621094 235.246094 37.621094 233.859375 C 37.621094 233.667969 37.632812 233.476562 37.65625 233.28125 C 37.859375 231.695312 38.890625 230.398438 40.257812 229.792969 C 39.851562 229.105469 39.640625 228.316406 39.640625 227.515625 C 39.640625 226.808594 39.808594 226.09375 40.167969 225.433594 C 40.929688 224.03125 42.339844 223.175781 43.835938 223.074219 C 43.792969 222.832031 43.777344 222.59375 43.777344 222.351562 C 43.777344 221.121094 44.285156 219.875 45.292969 218.976562 C 46.144531 218.242188 47.199219 217.878906 48.25 217.878906 C 48.683594 217.878906 49.125 217.941406 49.550781 218.066406 C 49.84375 216.589844 50.867188 215.3125 52.371094 214.757812 C 52.886719 214.554688 53.425781 214.460938 53.949219 214.460938 C 54.945312 214.460938 55.917969 214.796875 56.691406 215.378906 C 57.476562 214.132812 58.886719 213.285156 60.5 213.285156 C 60.503906 213.285156 60.507812 213.285156 60.515625 213.285156 C 61.203125 213.285156 61.84375 213.46875 62.433594 213.753906 C 62.371094 213.945312 62.277344 214.136719 62.238281 214.339844 C 61.8125 214.21875 61.371094 214.152344 60.929688 214.152344 C 59.882812 214.152344 58.832031 214.511719 57.980469 215.25 C 56.773438 216.332031 56.28125 217.894531 56.527344 219.34375 C 55.027344 219.453125 53.617188 220.308594 52.859375 221.714844 C 52.097656 223.121094 52.183594 224.777344 52.945312 226.074219 C 51.582031 226.675781 50.550781 227.972656 50.347656 229.554688 C 50.148438 231.164062 50.792969 232.660156 51.957031 233.601562 C 50.910156 234.65625 50.414062 236.214844 50.773438 237.773438 C 51.160156 239.375 52.34375 240.550781 53.800781 241.003906 C 53.527344 241.59375 53.367188 242.230469 53.367188 242.875 C 53.367188 242.988281 53.394531 243.09375 53.40625 243.21875 C 52.003906 243.222656 50.625 243.882812 49.765625 245.109375 C 48.890625 246.335938 48.738281 247.859375 49.207031 249.175781 C 47.863281 249.558594 46.738281 250.5625 46.230469 251.992188 C 45.734375 253.398438 46.003906 254.894531 46.808594 256.035156 C 45.621094 256.761719 44.796875 258.050781 44.703125 259.5625 C 44.613281 261.035156 45.261719 262.421875 46.339844 263.289062 C 45.398438 264.324219 44.949219 265.78125 45.261719 267.253906 C 45.574219 268.707031 46.5625 269.863281 47.84375 270.417969 C 47.214844 271.652344 47.167969 273.175781 47.886719 274.511719 C 48.578125 275.859375 49.832031 276.683594 51.21875 276.878906 C 50.953125 278.238281 51.332031 279.710938 52.34375 280.789062 C 53.226562 281.734375 54.4375 282.210938 55.644531 282.210938 C 55.835938 282.210938 56.023438 282.203125 56.214844 282.179688 C 56.304688 283.5625 57.066406 284.886719 58.339844 285.660156 C 59.078125 286.105469 59.886719 286.320312 60.683594 286.320312 C 61.289062 286.320312 61.886719 286.195312 62.441406 285.953125 C 62.875 287.171875 63.828125 288.1875 65.121094 288.648438 C 64.792969 289.191406 64.332031 289.65625 63.78125 290.011719 C 64.464844 290.453125 65.277344 290.710938 66.117188 290.710938 C 66.480469 290.710938 66.851562 290.664062 67.21875 290.5625 C 68.410156 290.234375 69.351562 289.429688 69.871094 288.410156 C 70.675781 289.265625 71.824219 289.792969 73.101562 289.792969 L 73.121094 289.792969 C 74.371094 289.792969 75.472656 289.261719 76.28125 288.449219 C 76 288.785156 75.6875 289.105469 75.300781 289.363281 C 75.265625 289.386719 75.222656 289.410156 75.1875 289.433594 C 74.46875 289.871094 73.671875 290.074219 72.890625 290.074219 C 72.269531 290.074219 71.65625 289.945312 71.089844 289.699219 C 70.617188 291.019531 69.523438 292.09375 68.066406 292.488281 C 67.667969 292.601562 67.265625 292.65625 66.867188 292.65625 C 65.835938 292.65625 64.832031 292.292969 64.058594 291.667969 C 63.902344 291.882812 63.730469 292.085938 63.535156 292.269531 C 62.734375 293.042969 61.640625 293.527344 60.433594 293.527344 " fill-opacity="1" fill-rule="nonzero"/><path fill="#789e14" d="M 66.117188 290.710938 C 65.277344 290.710938 64.464844 290.453125 63.78125 290.011719 C 64.332031 289.65625 64.792969 289.191406 65.121094 288.648438 C 65.230469 288.683594 65.332031 288.71875 65.441406 288.75 C 65.84375 288.863281 66.246094 288.914062 66.640625 288.914062 C 67.683594 288.914062 68.675781 288.546875 69.472656 287.921875 C 69.59375 288.089844 69.726562 288.257812 69.871094 288.410156 C 69.351562 289.429688 68.410156 290.234375 67.21875 290.5625 C 66.851562 290.664062 66.480469 290.710938 66.117188 290.710938 " fill-opacity="1" fill-rule="nonzero"/><g clip-path="url(#76756396e4)"><path fill="#f1511b" d="M 106.980469 90.195312 L 250.5 90.195312 L 250.5 29.859375 L 106.980469 29.859375 Z M 106.980469 90.195312 " fill-opacity="1" fill-rule="nonzero"/></g><path fill="#ffffff" d="M 114.519531 84.730469 L 242.957031 84.730469 L 242.957031 35.316406 L 114.519531 35.316406 Z M 114.519531 84.730469 " fill-opacity="1" fill-rule="nonzero"/><path fill="#d7d7d7" d="M 114.519531 84.730469 L 114.519531 35.316406 L 242.957031 35.316406 L 114.519531 84.730469 " fill-opacity="1" fill-rule="nonzero"/></svg>