<svg xmlns="http://www.w3.org/2000/svg" xmlns:xlink="http://www.w3.org/1999/xlink" width="500" zoomAndPan="magnify" viewBox="0 0 375 374.999991" height="500" preserveAspectRatio="xMidYMid meet" version="1.0"><defs><clipPath id="f56e5428bc"><path d="M 149.257812 159.523438 L 198.757812 159.523438 L 198.757812 215.773438 L 149.257812 215.773438 Z M 149.257812 159.523438 " clip-rule="nonzero"/></clipPath></defs><g clip-path="url(#f56e5428bc)"><path fill="#000000" d="M 166.253906 188.121094 C 166.445312 187.929688 166.546875 187.648438 166.546875 187.332031 C 166.546875 186.65625 166.042969 185.644531 164.652344 185.644531 L 159.242188 185.644531 C 155.34375 185.644531 154.546875 188.085938 154.03125 189.695312 C 153.921875 190.066406 153.808594 190.371094 153.683594 190.628906 C 153.496094 190.988281 153.125 191.214844 152.722656 191.214844 L 151.410156 191.214844 L 151.410156 198.59375 L 153.28125 198.59375 C 153.695312 198.59375 154.066406 198.820312 154.246094 199.191406 C 154.691406 200.066406 155.265625 200.855469 155.960938 201.554688 C 156.699219 202.308594 157.695312 202.710938 158.761719 202.710938 L 161.761719 202.710938 L 161.761719 190.628906 L 160.171875 190.628906 C 159.578125 190.628906 159.097656 190.144531 159.097656 189.550781 C 159.097656 188.953125 159.578125 188.46875 160.171875 188.46875 L 165.257812 188.46875 C 165.707031 188.46875 166.042969 188.355469 166.253906 188.121094 Z M 182.933594 166.398438 L 182.933594 164.371094 C 182.933594 162.898438 181.734375 161.683594 180.257812 161.683594 C 178.777344 161.683594 177.578125 162.898438 177.578125 164.371094 L 177.578125 166.398438 Z M 186.550781 173.574219 L 186.550781 168.996094 C 186.550781 168.757812 186.363281 168.558594 186.128906 168.558594 L 174.386719 168.558594 C 174.152344 168.558594 173.949219 168.757812 173.949219 168.996094 L 173.949219 173.574219 C 173.949219 173.8125 174.152344 174.011719 174.386719 174.011719 L 186.128906 174.011719 C 186.363281 174.011719 186.550781 173.8125 186.550781 173.574219 Z M 196.601562 211.53125 L 196.601562 174.453125 C 196.601562 173.304688 195.671875 172.371094 194.527344 172.371094 L 188.714844 172.371094 L 188.714844 173.574219 C 188.714844 175.003906 187.550781 176.171875 186.128906 176.171875 L 174.386719 176.171875 C 172.964844 176.171875 171.800781 175.003906 171.800781 173.574219 L 171.800781 172.371094 L 165.984375 172.371094 C 164.84375 172.371094 163.914062 173.304688 163.914062 174.453125 L 163.914062 183.484375 L 164.652344 183.484375 C 167.273438 183.484375 168.695312 185.464844 168.695312 187.332031 C 168.695312 188.210938 168.382812 189.019531 167.8125 189.617188 C 167.375 190.078125 166.578125 190.628906 165.257812 190.628906 L 163.914062 190.628906 L 163.914062 211.53125 C 163.914062 212.679688 164.84375 213.613281 165.984375 213.613281 L 194.527344 213.613281 C 195.671875 213.613281 196.601562 212.679688 196.601562 211.53125 Z M 198.753906 174.453125 L 198.753906 211.53125 C 198.753906 213.871094 196.859375 215.773438 194.527344 215.773438 L 165.984375 215.773438 C 163.65625 215.773438 161.761719 213.871094 161.761719 211.53125 L 161.761719 204.882812 L 158.761719 204.882812 C 157.125 204.882812 155.578125 204.242188 154.4375 203.082031 C 153.742188 202.386719 153.136719 201.609375 152.644531 200.753906 L 150.335938 200.753906 C 149.742188 200.753906 149.261719 200.269531 149.261719 199.675781 L 149.261719 190.132812 C 149.261719 189.539062 149.742188 189.054688 150.335938 189.054688 L 151.972656 189.054688 C 151.984375 189.042969 151.984375 189.042969 151.984375 189.03125 C 152.519531 187.367188 153.773438 183.484375 159.242188 183.484375 L 161.761719 183.484375 L 161.761719 174.453125 C 161.761719 172.113281 163.65625 170.210938 165.984375 170.210938 L 171.800781 170.210938 L 171.800781 168.996094 C 171.800781 167.566406 172.964844 166.398438 174.386719 166.398438 L 175.429688 166.398438 L 175.429688 164.371094 C 175.429688 161.695312 177.589844 159.523438 180.257812 159.523438 C 182.921875 159.523438 185.085938 161.695312 185.085938 164.371094 L 185.085938 166.398438 L 186.128906 166.398438 C 187.550781 166.398438 188.714844 167.566406 188.714844 168.996094 L 188.714844 170.210938 L 194.527344 170.210938 C 196.859375 170.210938 198.753906 172.113281 198.753906 174.453125 " fill-opacity="1" fill-rule="nonzero"/></g><path fill="#e4d195" d="M 179.941406 184.125 C 179.941406 183.53125 179.460938 183.035156 178.867188 183.035156 L 172.214844 183.035156 C 171.621094 183.035156 171.136719 183.53125 171.136719 184.125 C 171.136719 184.722656 171.621094 185.207031 172.214844 185.207031 L 178.867188 185.207031 C 179.460938 185.207031 179.941406 184.722656 179.941406 184.125 Z M 186.226562 192.992188 C 186.226562 192.394531 185.746094 191.910156 185.152344 191.910156 L 172.214844 191.910156 C 171.621094 191.910156 171.136719 192.394531 171.136719 192.992188 C 171.136719 193.589844 171.621094 194.070312 172.214844 194.070312 L 185.152344 194.070312 C 185.746094 194.070312 186.226562 193.589844 186.226562 192.992188 Z M 189.375 201.855469 C 189.375 201.261719 188.894531 200.777344 188.300781 200.777344 L 172.214844 200.777344 C 171.621094 200.777344 171.136719 201.261719 171.136719 201.855469 C 171.136719 202.453125 171.621094 202.9375 172.214844 202.9375 L 188.300781 202.9375 C 188.894531 202.9375 189.375 202.453125 189.375 201.855469 Z M 196.601562 174.453125 L 196.601562 211.53125 C 196.601562 212.679688 195.671875 213.613281 194.527344 213.613281 L 165.984375 213.613281 C 164.84375 213.613281 163.914062 212.679688 163.914062 211.53125 L 163.914062 190.628906 L 165.257812 190.628906 C 166.578125 190.628906 167.375 190.078125 167.8125 189.617188 C 168.382812 189.019531 168.695312 188.210938 168.695312 187.332031 C 168.695312 185.464844 167.273438 183.484375 164.652344 183.484375 L 163.914062 183.484375 L 163.914062 174.453125 C 163.914062 173.304688 164.84375 172.371094 165.984375 172.371094 L 171.800781 172.371094 L 171.800781 173.574219 C 171.800781 175.003906 172.964844 176.171875 174.386719 176.171875 L 186.128906 176.171875 C 187.550781 176.171875 188.714844 175.003906 188.714844 173.574219 L 188.714844 172.371094 L 194.527344 172.371094 C 195.671875 172.371094 196.601562 173.304688 196.601562 174.453125 " fill-opacity="1" fill-rule="nonzero"/><path fill="#000000" d="M 188.300781 200.777344 C 188.894531 200.777344 189.375 201.261719 189.375 201.855469 C 189.375 202.453125 188.894531 202.9375 188.300781 202.9375 L 172.214844 202.9375 C 171.621094 202.9375 171.136719 202.453125 171.136719 201.855469 C 171.136719 201.261719 171.621094 200.777344 172.214844 200.777344 L 188.300781 200.777344 " fill-opacity="1" fill-rule="nonzero"/><path fill="#898584" d="M 186.550781 168.996094 L 186.550781 173.574219 C 186.550781 173.8125 186.363281 174.011719 186.128906 174.011719 L 174.386719 174.011719 C 174.152344 174.011719 173.949219 173.8125 173.949219 173.574219 L 173.949219 168.996094 C 173.949219 168.757812 174.152344 168.558594 174.386719 168.558594 L 186.128906 168.558594 C 186.363281 168.558594 186.550781 168.757812 186.550781 168.996094 " fill-opacity="1" fill-rule="nonzero"/><path fill="#000000" d="M 185.152344 191.910156 C 185.746094 191.910156 186.226562 192.394531 186.226562 192.992188 C 186.226562 193.589844 185.746094 194.070312 185.152344 194.070312 L 172.214844 194.070312 C 171.621094 194.070312 171.136719 193.589844 171.136719 192.992188 C 171.136719 192.394531 171.621094 191.910156 172.214844 191.910156 L 185.152344 191.910156 " fill-opacity="1" fill-rule="nonzero"/><path fill="#898584" d="M 182.933594 164.371094 L 182.933594 166.398438 L 177.578125 166.398438 L 177.578125 164.371094 C 177.578125 162.898438 178.777344 161.683594 180.257812 161.683594 C 181.734375 161.683594 182.933594 162.898438 182.933594 164.371094 " fill-opacity="1" fill-rule="nonzero"/><path fill="#000000" d="M 178.867188 183.035156 C 179.460938 183.035156 179.941406 183.53125 179.941406 184.125 C 179.941406 184.722656 179.460938 185.207031 178.867188 185.207031 L 172.214844 185.207031 C 171.621094 185.207031 171.136719 184.722656 171.136719 184.125 C 171.136719 183.53125 171.621094 183.035156 172.214844 183.035156 L 178.867188 183.035156 " fill-opacity="1" fill-rule="nonzero"/><path fill="#b8a89c" d="M 166.546875 187.332031 C 166.546875 187.648438 166.445312 187.929688 166.253906 188.121094 C 166.042969 188.355469 165.707031 188.46875 165.257812 188.46875 L 160.171875 188.46875 C 159.578125 188.46875 159.097656 188.953125 159.097656 189.550781 C 159.097656 190.144531 159.578125 190.628906 160.171875 190.628906 L 161.761719 190.628906 L 161.761719 202.710938 L 158.761719 202.710938 C 157.695312 202.710938 156.699219 202.308594 155.960938 201.554688 C 155.265625 200.855469 154.691406 200.066406 154.246094 199.191406 C 154.066406 198.820312 153.695312 198.59375 153.28125 198.59375 L 151.410156 198.59375 L 151.410156 191.214844 L 152.722656 191.214844 C 153.125 191.214844 153.496094 190.988281 153.683594 190.628906 C 153.808594 190.371094 153.921875 190.066406 154.03125 189.695312 C 154.546875 188.085938 155.34375 185.644531 159.242188 185.644531 L 164.652344 185.644531 C 166.042969 185.644531 166.546875 186.65625 166.546875 187.332031 " fill-opacity="1" fill-rule="nonzero"/></svg>